<svg xmlns="http://www.w3.org/2000/svg" width="512" height="512" viewBox="0 0 512 512" data-svgdocument="" id="_ph2M5nYJ3Hb7HBETsQ7Ch" class="fl-svgdocument" x="0" y="0" style="overflow: hidden;" xmlns:xlink="http://www.w3.org/1999/xlink">
  <defs id="_ayU_Nzc8GHa7TokQ9VEkF" transform="matrix(1.133384681916495, 0, 0, 1.133384681916495, -37.896676950654516, -39.67108084331869)" />
  <rect id="_CsA0iFMY_EiHD2rroZ4by" y="84.525" width="176.742" height="7.219" fill="#00dae8" transform="matrix(1.608887467123309, 0, 0, 0.5420620057337825, 117.7017364501953, 227.15999192396154)" />
  <path id="_aj-_g-LjzWIrk3gwmbJxF" fill="#00dae8" d="M99.653,69.455l-9.922-15.887l6.179-1.761c0.858-0.246,1.497-0.968,1.634-1.851  c0.136-0.883-0.253-1.764-0.997-2.257l-6.284-4.168C89.392,19.42,69.448,0,45.17,0C20.265,0,0,20.263,0,45.168  c0,24.906,20.265,45.168,45.17,45.168c16.057,0,30.933-8.671,38.976-22.376l5.02,8.036c0.436,0.695,1.18,1.077,1.943,1.077  c0.414,0,0.832-0.112,1.209-0.347l6.604-4.118c0.514-0.322,0.88-0.834,1.019-1.426C100.078,70.59,99.973,69.969,99.653,69.455z   M48.518,11.768c2.925,0,6.242,0,6.816,0.463c0,0,0.002,0.007,0.007,0.022c-0.702,0.751-3.24,2.021-4.798,2.8  c-3.949,1.976-7.359,3.681-7.359,6.622c0,1.787,1.314,3.032,2.585,4.236c1.379,1.308,2.802,2.657,2.829,4.508  c0.027,2.045-1.613,4.782-4.744,7.915c-1.741,1.741-3.285,3.643-2.789,5.759c0.521,2.226,2.764,2.981,5.363,3.855  c3.645,1.227,8.638,2.907,12.374,8.507c3.334,5-8.897,19.57-19.134,28.887c-2.66-0.362-5.234-0.977-7.706-1.83  c2.031-6.396,1.401-8.168-1.922-12.144c-1.063-1.274-2.389-2.86-3.996-5.27c-3.904-5.859-0.353-9.811,4.322-14.01  c0.57-0.512,1.08-0.972,1.493-1.383c0.628-0.628,6.067-6.287,4.012-11.241c-1.354-3.263-5.191-4.85-11.73-4.85  c-2.677,0-4.587-0.809-5.841-2.474c-3.12-4.141-1.79-12.784-0.829-16.563c5.598-5.242,12.658-8.914,20.513-10.326  C39.658,7.71,43.22,11.768,48.518,11.768z M4.577,45.168c0-8.597,2.704-16.563,7.283-23.134c-0.277,4.3,0.141,9.346,2.778,12.854  c2.147,2.855,5.345,4.304,9.504,4.304c6.182,0,7.306,1.553,7.504,2.029c0.581,1.403-1.117,4.337-3.021,6.248  c-0.359,0.359-0.813,0.765-1.314,1.214c-3.729,3.35-11.493,10.322-5.073,19.953c1.746,2.615,3.216,4.378,4.291,5.665  c2.344,2.807,2.592,3.178,1.203,7.464C14.063,75.228,4.577,61.303,4.577,45.168z M45.941,85.73  c8.005-7.772,22.249-23.444,16.669-31.813c-4.604-6.903-10.938-9.033-14.722-10.307c-0.67-0.226-1.446-0.487-1.991-0.713  c0.23-0.302,0.599-0.733,1.193-1.327c4.141-4.144,6.129-7.811,6.083-11.214c-0.051-3.781-2.581-6.18-4.254-7.766  c-0.282-0.269-0.628-0.597-0.885-0.867c0.928-0.762,3.145-1.87,4.557-2.576c3.944-1.974,7.353-3.677,7.353-6.615  c0-5.341-5.042-5.341-11.424-5.341c-2.101,0-3.848-1.211-5.133-2.525c0.597-0.024,1.182-0.089,1.785-0.089  c20.682,0,37.885,15.679,40.288,35.769L70.407,30.36c-0.744-0.498-1.712-0.507-2.479-0.033c-0.76,0.474-1.173,1.35-1.055,2.239  l4.119,31.096c0.116,0.888,0.739,1.623,1.593,1.887c0.852,0.266,1.783,0.009,2.378-0.657l4.284-4.775l2.116,3.388  C74.598,76.825,60.895,85.442,45.941,85.73z M91.836,71.634L81.519,55.11c-0.382-0.61-1.028-1.006-1.745-1.068  c-0.065-0.007-0.132-0.009-0.197-0.009c-0.647,0-1.267,0.274-1.702,0.76l-2.997,3.341l-2.805-21.179l17.807,11.813l-4.327,1.233  c-0.69,0.198-1.249,0.708-1.508,1.379c-0.257,0.672-0.186,1.426,0.194,2.033l10.319,16.521L91.836,71.634z" transform="matrix(0.7450552233663803, 0, 0, 0.7450552233663803, 47.99999999999999, 222.34734621668207)" />
  <path text="Chad Heisler" text-anchor="start" font-size="100" letter-spacing="0" side="left" offset="0" dx="0" dy="0" space="preserve" href="" font-family="Source Sans Pro" font-scale="contain" transform="matrix(0.4640355408191681, 0, 0, 0.4640355408191681, 128.89111328125, 261.8822326660156)" x="0" y="0" fill="#000000" font-weight="700" data-fl-textpath="" id="_yBoDZit30-iELY-FP7nNt" d="M 34.9 1.2L 34.9 1.2Q 28.7 1.2  23.2-0.95Q 17.7-3.1  13.55-7.3Q 9.4-11.5  7-17.75Q 4.6-24  4.6-32.2L 4.6-32.2Q 4.6-40.3  7.1-46.65Q 9.6-53  13.8-57.4Q 18-61.8  23.6-64.1Q 29.2-66.4  35.4-66.4L 35.4-66.4Q 41.7-66.4  46.7-63.85Q 51.7-61.3  55-57.9L 55-57.9L 47.2-48.5Q 44.7-50.8  41.95-52.25Q 39.2-53.7  35.7-53.7L 35.7-53.7Q 32.4-53.7  29.45-52.25Q 26.5-50.8  24.35-48.1Q 22.2-45.4  20.95-41.5Q 19.7-37.6  19.7-32.7L 19.7-32.7Q 19.7-22.6  24-17.05Q 28.3-11.5  35.5-11.5L 35.5-11.5Q 39.5-11.5  42.65-13.25Q 45.8-15  48.2-17.6L 48.2-17.6L 56-8.4Q 47.8 1.2  34.9 1.2ZM 79.4 0L 64.7 0L 64.7-70.1L 79.4-70.1L 79.4-52.9L 78.7-44Q 81.5-46.5  85.2-48.65Q 88.9-50.8  94-50.8L 94-50.8Q 102.1-50.8  105.75-45.5Q 109.4-40.2  109.4-30.8L 109.4-30.8L 109.4 0L 94.7 0L 94.7-28.9Q 94.7-34.3  93.25-36.3Q 91.80000000000001-38.3  88.6-38.3L 88.6-38.3Q 85.80000000000001-38.3  83.80000000000001-37.05Q 81.80000000000001-35.8  79.4-33.5L 79.4-33.5L 79.4 0ZM 134.3 1.2L 134.3 1.2Q 130.9 1.2  128.15 0.05Q 125.4-1.1  123.50000000000001-3.15Q 121.60000000000001-5.2  120.55000000000001-7.9Q 119.50000000000001-10.6  119.50000000000001-13.8L 119.50000000000001-13.8Q 119.50000000000001-21.6  126.10000000000001-26Q 132.70000000000002-30.4  147.4-31.9L 147.4-31.9Q 147.20000000000002-35.2  145.45000000000002-37.15Q 143.70000000000002-39.1  139.60000000000002-39.1L 139.60000000000002-39.1Q 136.4-39.1  133.25-37.9Q 130.10000000000002-36.7  126.50000000000001-34.6L 126.50000000000001-34.6L 121.20000000000002-44.3Q 126.00000000000001-47.2  131.25-49Q 136.5-50.8  142.4-50.8L 142.4-50.8Q 152-50.8  157.05-45.35Q 162.10000000000002-39.9  162.10000000000002-28.4L 162.10000000000002-28.4L 162.10000000000002 0L 150.10000000000002 0L 149.10000000000002-5.1L 148.70000000000002-5.1Q 145.5-2.3  142-0.55Q 138.5 1.2  134.3 1.2ZM 139.3-10.2L 139.3-10.2Q 141.8-10.2  143.60000000000002-11.3Q 145.4-12.4  147.4-14.4L 147.4-14.4L 147.4-23.1Q 139.60000000000002-22  136.60000000000002-19.9Q 133.60000000000002-17.8  133.60000000000002-14.9L 133.60000000000002-14.9Q 133.60000000000002-12.5  135.15-11.35Q 136.70000000000002-10.2  139.3-10.2ZM 192.2 1.2L 192.2 1.2Q 187.6 1.2  183.85-0.6Q 180.1-2.4  177.45-5.75Q 174.8-9.1  173.35-13.9Q 171.9-18.7  171.9-24.8L 171.9-24.8Q 171.9-30.9  173.65-35.7Q 175.4-40.5  178.25-43.85Q 181.1-47.2  184.85-49Q 188.6-50.8  192.5-50.8L 192.5-50.8Q 196.7-50.8  199.4-49.4Q 202.1-48  204.7-45.6L 204.7-45.6L 204.1-53.2L 204.1-70.1L 218.8-70.1L 218.8 0L 206.8 0L 205.8-4.9L 205.4-4.9Q 202.8-2.3  199.3-0.55Q 195.8 1.2  192.2 1.2ZM 196-10.8L 196-10.8Q 198.4-10.8  200.35-11.8Q 202.3-12.8  204.1-15.3L 204.1-15.3L 204.1-35.6Q 202.1-37.4  200-38.1Q 197.9-38.8  195.9-38.8L 195.9-38.8Q 192.4-38.8  189.7-35.45Q 187-32.1  187-25L 187-25Q 187-17.6  189.35-14.2Q 191.7-10.8  196-10.8ZM 267.7 0L 253 0L 253-65.2L 267.7-65.2L 267.7-40.1L 290.2-40.1L 290.2-65.2L 305-65.2L 305 0L 290.2 0L 290.2-27.2L 267.7-27.2L 267.7 0ZM 341.40000000000003 1.2L 341.40000000000003 1.2Q 336.1 1.2  331.50000000000006-0.55Q 326.90000000000003-2.3  323.50000000000006-5.65Q 320.1-9  318.20000000000005-13.8Q 316.30000000000007-18.6  316.30000000000007-24.8L 316.30000000000007-24.8Q 316.30000000000007-30.8  318.30000000000007-35.65Q 320.30000000000007-40.5  323.55000000000007-43.85Q 326.80000000000007-47.2  331.00000000000006-49Q 335.20000000000005-50.8  339.70000000000005-50.8L 339.70000000000005-50.8Q 345.00000000000006-50.8  348.95000000000005-49Q 352.90000000000003-47.2  355.55000000000007-44Q 358.20000000000005-40.8  359.50000000000006-36.45Q 360.80000000000007-32.1  360.80000000000007-27L 360.80000000000007-27Q 360.80000000000007-25  360.6-23.2Q 360.40000000000003-21.4  360.20000000000005-20.5L 360.20000000000005-20.5L 330.50000000000006-20.5Q 331.50000000000006-15.1  334.95000000000005-12.55Q 338.40000000000003-10  343.40000000000003-10L 343.40000000000003-10Q 348.70000000000005-10  354.1-13.3L 354.1-13.3L 359.00000000000006-4.4Q 355.20000000000005-1.8  350.55000000000007-0.3Q 345.90000000000003 1.2  341.40000000000003 1.2ZM 330.40000000000003-30.2L 330.40000000000003-30.2L 348.30000000000007-30.2Q 348.30000000000007-34.4  346.40000000000003-37Q 344.50000000000006-39.6  340.00000000000006-39.6L 340.00000000000006-39.6Q 336.50000000000006-39.6  333.85-37.3Q 331.20000000000005-35  330.40000000000003-30.2ZM 385.70000000000005 0L 371.00000000000006 0L 371.00000000000006-49.6L 385.70000000000005-49.6L 385.70000000000005 0ZM 378.30000000000007-56.9L 378.30000000000007-56.9Q 374.6000000000001-56.9  372.20000000000005-59.05Q 369.80000000000007-61.2  369.80000000000007-64.6L 369.80000000000007-64.6Q 369.80000000000007-68  372.20000000000005-70.1Q 374.6000000000001-72.2  378.30000000000007-72.2L 378.30000000000007-72.2Q 382.1000000000001-72.2  384.45000000000005-70.1Q 386.80000000000007-68  386.80000000000007-64.6L 386.80000000000007-64.6Q 386.80000000000007-61.2  384.45000000000005-59.05Q 382.1000000000001-56.9  378.30000000000007-56.9ZM 413.2000000000001 1.2L 413.2000000000001 1.2Q 408.30000000000007 1.2  403.1500000000001-0.7Q 398.00000000000006-2.6  394.2000000000001-5.7L 394.2000000000001-5.7L 400.80000000000007-14.9Q 404.2000000000001-12.3  407.30000000000007-11Q 410.4000000000001-9.7  413.6000000000001-9.7L 413.6000000000001-9.7Q 416.9000000000001-9.7  418.4000000000001-10.8Q 419.9000000000001-11.9  419.9000000000001-13.9L 419.9000000000001-13.9Q 419.9000000000001-15.1  419.05000000000007-16.05Q 418.2000000000001-17  416.75000000000006-17.8Q 415.30000000000007-18.6  413.50000000000006-19.25Q 411.7000000000001-19.9  409.80000000000007-20.7L 409.80000000000007-20.7Q 407.50000000000006-21.6  405.2000000000001-22.8Q 402.9000000000001-24  401.00000000000006-25.75Q 399.1000000000001-27.5  397.9000000000001-29.85Q 396.7000000000001-32.2  396.7000000000001-35.3L 396.7000000000001-35.3Q 396.7000000000001-38.7  398.05000000000007-41.6Q 399.4000000000001-44.5  401.9000000000001-46.5Q 404.4000000000001-48.5  407.9000000000001-49.65Q 411.4000000000001-50.8  415.7000000000001-50.8L 415.7000000000001-50.8Q 421.4000000000001-50.8  425.7000000000001-48.85Q 430.00000000000006-46.9  433.2000000000001-44.5L 433.2000000000001-44.5L 426.6000000000001-35.7Q 423.9000000000001-37.7  421.30000000000007-38.8Q 418.7000000000001-39.9  416.1000000000001-39.9L 416.1000000000001-39.9Q 410.50000000000006-39.9  410.50000000000006-36L 410.50000000000006-36Q 410.50000000000006-34.8  411.30000000000007-33.95Q 412.1000000000001-33.1  413.4500000000001-32.4Q 414.80000000000007-31.7  416.55000000000007-31.05Q 418.30000000000007-30.4  420.2000000000001-29.7L 420.2000000000001-29.7Q 422.6000000000001-28.8  424.9500000000001-27.65Q 427.30000000000007-26.5  429.25000000000006-24.8Q 431.2000000000001-23.1  432.4000000000001-20.65Q 433.6000000000001-18.2  433.6000000000001-14.8L 433.6000000000001-14.8Q 433.6000000000001-11.4  432.30000000000007-8.5Q 431.00000000000006-5.6  428.4000000000001-3.45Q 425.80000000000007-1.3  422.00000000000006-0.05Q 418.2000000000001 1.2  413.2000000000001 1.2ZM 456.4000000000001 1.2L 456.4000000000001 1.2Q 452.6000000000001 1.2  450.0000000000001 0Q 447.4000000000001-1.2  445.8500000000001-3.35Q 444.30000000000007-5.5  443.6000000000001-8.55Q 442.9000000000001-11.6  442.9000000000001-15.4L 442.9000000000001-15.4L 442.9000000000001-70.1L 457.6000000000001-70.1L 457.6000000000001-14.8Q 457.6000000000001-12.5  458.4500000000001-11.6Q 459.30000000000007-10.7  460.2000000000001-10.7L 460.2000000000001-10.7Q 460.7000000000001-10.7  461.05000000000007-10.7Q 461.4000000000001-10.7  462.0000000000001-10.9L 462.0000000000001-10.9L 463.80000000000007 0Q 462.6000000000001 0.5  460.7500000000001 0.85Q 458.9000000000001 1.2  456.4000000000001 1.2ZM 493.7000000000001 1.2L 493.7000000000001 1.2Q 488.4000000000001 1.2  483.8000000000001-0.55Q 479.2000000000001-2.3  475.8000000000001-5.65Q 472.4000000000001-9  470.5000000000001-13.8Q 468.60000000000014-18.6  468.60000000000014-24.8L 468.60000000000014-24.8Q 468.60000000000014-30.8  470.60000000000014-35.65Q 472.60000000000014-40.5  475.85000000000014-43.85Q 479.10000000000014-47.2  483.3000000000001-49Q 487.5000000000001-50.8  492.0000000000001-50.8L 492.0000000000001-50.8Q 497.3000000000001-50.8  501.2500000000001-49Q 505.2000000000001-47.2  507.85000000000014-44Q 510.5000000000001-40.8  511.8000000000001-36.45Q 513.1000000000001-32.1  513.1000000000001-27L 513.1000000000001-27Q 513.1000000000001-25  512.9000000000001-23.2Q 512.7000000000002-21.4  512.5000000000001-20.5L 512.5000000000001-20.5L 482.8000000000001-20.5Q 483.8000000000001-15.1  487.2500000000001-12.55Q 490.7000000000001-10  495.7000000000001-10L 495.7000000000001-10Q 501.0000000000001-10  506.4000000000001-13.3L 506.4000000000001-13.3L 511.3000000000001-4.4Q 507.5000000000001-1.8  502.85000000000014-0.3Q 498.2000000000001 1.2  493.7000000000001 1.2ZM 482.7000000000001-30.2L 482.7000000000001-30.2L 500.60000000000014-30.2Q 500.60000000000014-34.4  498.7000000000001-37Q 496.8000000000001-39.6  492.3000000000001-39.6L 492.3000000000001-39.6Q 488.8000000000001-39.6  486.1500000000001-37.3Q 483.5000000000001-35  482.7000000000001-30.2ZM 538.0000000000001 0L 523.3000000000001 0L 523.3000000000001-49.6L 535.3000000000001-49.6L 536.3000000000001-40.9L 536.7-40.9Q 539.4000000000001-46  543.2-48.4Q 547.0000000000001-50.8  550.8000000000001-50.8L 550.8000000000001-50.8Q 552.9000000000001-50.8  554.2500000000001-50.55Q 555.6-50.3  556.7-49.8L 556.7-49.8L 554.3000000000001-37.1Q 552.9000000000001-37.5  551.7-37.7Q 550.5000000000001-37.9  548.9000000000001-37.9L 548.9000000000001-37.9Q 546.1-37.9  543.0500000000001-35.9Q 540.0000000000001-33.9  538.0000000000001-28.8L 538.0000000000001-28.8L 538.0000000000001 0Z"></path>
</svg>